<svg width="40" height="40" viewBox="0 0 40 40" fill="none" xmlns="http://www.w3.org/2000/svg">
<path d="M16.9496 8.33328C17.1986 8.33243 17.4446 8.38739 17.6695 8.4941C17.8945 8.60081 18.0927 8.75658 18.2496 8.94995L26.2996 18.9499C26.5447 19.2482 26.6787 19.6222 26.6787 20.0083C26.6787 20.3943 26.5447 20.7684 26.2996 21.0666L17.9662 31.0666C17.6833 31.407 17.2768 31.621 16.8361 31.6616C16.3954 31.7023 15.9566 31.5662 15.6162 31.2833C15.2759 31.0004 15.0618 30.5939 15.0212 30.1532C14.9806 29.7124 15.1167 29.2736 15.3996 28.9333L22.8496 19.9999L15.6496 11.0666C15.4458 10.822 15.3163 10.5241 15.2765 10.2082C15.2367 9.89224 15.2882 9.57153 15.425 9.28399C15.5617 8.99644 15.778 8.75409 16.0482 8.5856C16.3184 8.41712 16.6312 8.32956 16.9496 8.33328Z" fill="white"/>
</svg>
