<svg width="34" height="34" viewBox="0 0 34 34" fill="none" xmlns="http://www.w3.org/2000/svg">
<path d="M21.0508 9.77172H27.6748V11.3787H21.0508V9.77172ZM14.4135 16.1301C15.8777 15.4295 16.6447 14.3637 16.6447 12.7168C16.6447 9.45961 14.2209 8.66937 11.4219 8.66937H3.71875V25.0186H11.6377C14.6061 25.0186 17.3918 23.5909 17.3918 20.2705C17.3918 18.2186 16.4223 16.7012 14.4135 16.1301ZM7.31133 11.4584H10.6814C11.9797 11.4584 13.1451 11.8203 13.1451 13.3278C13.1451 14.7157 12.2387 15.2735 10.9537 15.2735H7.31133V11.4584ZM11.1463 22.2428H7.30801V17.7405H11.2227C12.8031 17.7405 13.8025 18.4012 13.8025 20.0746C13.8025 21.7215 12.6105 22.2428 11.1463 22.2428ZM30.2647 19.2711C30.2647 15.7682 28.216 12.8496 24.5105 12.8496C20.908 12.8496 18.4576 15.5623 18.4576 19.1184C18.4576 22.8039 20.7785 25.334 24.5105 25.334C27.3361 25.334 29.1656 24.0623 30.0455 21.3496H27.1801C26.868 22.3623 25.5996 22.8936 24.6135 22.8936C22.7076 22.8936 21.7115 21.778 21.7115 19.8821H30.2414C30.2514 19.6862 30.2647 19.4803 30.2647 19.2711ZM21.7115 17.8301C21.8145 16.2729 22.8537 15.3 24.4076 15.3C26.0412 15.3 26.858 16.2596 27.0008 17.8301H21.7115Z" fill="white"/>
</svg>
