<svg width="30" height="30" viewBox="0 0 30 30" fill="none" xmlns="http://www.w3.org/2000/svg">
<path d="M5.81606 7.99642L5.81667 7.99667L5.82019 7.98434C6.10778 6.97776 6.97593 6.10391 7.99784 5.66549C8.3574 5.52193 8.85955 5.42051 9.44603 5.35069C10.0314 5.281 10.6929 5.24365 11.366 5.22495C12.3062 5.19883 13.2624 5.20917 14.062 5.21782C14.4088 5.22157 14.7262 5.225 15 5.225C15.2362 5.225 15.5048 5.22245 15.7968 5.21967C16.6234 5.21182 17.6372 5.20218 18.6323 5.24364C19.3049 5.27167 19.9654 5.32295 20.5496 5.41337C21.1358 5.50409 21.6364 5.63294 21.9941 5.8118L22.0045 5.817L22.0157 5.82019C23.0241 6.10833 23.8917 6.97587 24.1798 7.98434L24.1792 7.98452L24.1839 7.99642C24.3277 8.35578 24.4293 8.86755 24.4993 9.46684C24.569 10.064 24.6063 10.7397 24.625 11.4222C24.6514 12.3853 24.6406 13.3553 24.6319 14.1348C24.6283 14.4615 24.625 14.7548 24.625 15C24.625 15.2466 24.6283 15.5384 24.632 15.8621C24.6407 16.6285 24.6514 17.5738 24.625 18.5215C24.5876 19.8715 24.475 21.2002 24.1837 22.004C23.7464 23.0223 23.0209 23.7475 22.0022 24.1845C21.6429 24.3279 21.1317 24.4294 20.5332 24.4993C19.9359 24.569 19.2603 24.6063 18.5778 24.625C17.6147 24.6514 16.6447 24.6406 15.8652 24.6319C15.5385 24.6283 15.2452 24.625 15 24.625C14.7548 24.625 14.4615 24.6283 14.1348 24.6319C13.3553 24.6406 12.3853 24.6514 11.4222 24.625C10.7397 24.6063 10.064 24.569 9.46684 24.4993C8.86755 24.4293 8.35578 24.3277 7.99642 24.1839L7.99667 24.1833L7.98434 24.1798C6.97587 23.8917 6.10833 23.0241 5.82019 22.0157L5.82082 22.0155L5.81606 22.0036C5.6722 21.6439 5.5706 21.1412 5.50069 20.554C5.431 19.9686 5.39365 19.3071 5.37495 18.634C5.34883 17.6938 5.35917 16.7376 5.36782 15.938C5.37157 15.5912 5.375 15.2738 5.375 15C5.375 14.7262 5.37157 14.4088 5.36782 14.062C5.35917 13.2624 5.34883 12.3062 5.37495 11.366C5.39365 10.6929 5.431 10.0314 5.50069 9.44603C5.5706 8.85878 5.6722 8.35608 5.81606 7.99642ZM25.1384 25.1384L25.1385 25.1385L25.1429 25.1336C26.515 23.609 27.125 21.7786 27.125 19.95V15V10.05C27.125 8.06768 26.3626 6.23853 25.1434 4.86695L25.144 4.86644L25.1336 4.85709C23.609 3.48497 21.7786 2.875 19.95 2.875H10.05C8.21565 2.875 6.38892 3.63879 4.87191 4.85239L4.86363 4.85902L4.85657 4.86695C3.63739 6.23853 2.875 8.06768 2.875 10.05V15V19.95C2.875 21.9323 3.63739 23.7615 4.85657 25.133L4.85599 25.1336L4.86638 25.1429C6.39095 26.515 8.22137 27.125 10.05 27.125H19.95C21.9258 27.125 23.7602 26.5165 25.1384 25.1384ZM15 11.075C17.181 11.075 18.925 12.819 18.925 15C18.925 17.181 17.181 18.925 15 18.925C12.819 18.925 11.075 17.181 11.075 15C11.075 12.819 12.819 11.075 15 11.075ZM15 21.275C18.519 21.275 21.275 18.519 21.275 15C21.275 11.481 18.519 8.725 15 8.725C11.481 8.725 8.725 11.481 8.725 15C8.725 18.519 11.481 21.275 15 21.275ZM21.3 10.175C21.7784 10.175 22.1868 10.015 22.4759 9.72589C22.765 9.43679 22.925 9.02841 22.925 8.55C22.925 7.73923 22.277 6.925 21.3 6.925C20.8216 6.925 20.4132 7.08501 20.1241 7.37411C19.835 7.66321 19.675 8.07159 19.675 8.55C19.675 9.02841 19.835 9.43679 20.1241 9.72589C20.4132 10.015 20.8216 10.175 21.3 10.175Z" fill="white" stroke="white" stroke-width="0.25"/>
</svg>
